<?xml version="1.0" encoding="utf-8"?>
<!-- Generator: Adobe Illustrator 18.1.1, SVG Export Plug-In . SVG Version: 6.00 Build 0)  -->
<svg version="1.1" xmlns="http://www.w3.org/2000/svg" xmlns:xlink="http://www.w3.org/1999/xlink" x="0px" y="0px"
	 viewBox="0 0 50 50" enable-background="new 0 0 50 50" xml:space="preserve">
<g id="local">
	<path d="M39.3,18.5c0-9.8-9.9-17.4-20.3-13.1c-2.6,1.1-4.9,3-6.3,5.5c-2.6,4.5-2.6,9-1.2,12.7h0l0,0.1c0.3,0.9,0.7,1.7,1.2,2.5
		l11.8,19.2c0.1,0.2,0.5,0.2,0.6,0l11.8-19.2c0.5-0.8,0.9-1.6,1.2-2.5l0-0.1h0C39,22,39.3,20.3,39.3,18.5z M28.5,25
		c-6.5,3.2-12.9-3.2-9.7-9.7c0.6-1.2,1.6-2.2,2.8-2.8c6.5-3.2,12.9,3.2,9.7,9.7C30.7,23.5,29.7,24.5,28.5,25z"/>
</g>
<g id="data">
	<g>
		<rect x="11.6" y="3.8" width="6.3" height="6.3"/>
		<rect x="32.1" y="3.8" width="6.3" height="6.3"/>
		<path d="M42.9,6.9h-2.6v2.6c0,1.4-1.1,2.6-2.6,2.6h-5.1c-1.4,0-2.6-1.1-2.6-2.6V6.9H19.9v2.6c0,1.4-1.1,2.6-2.6,2.6h-5.1
			c-1.4,0-2.6-1.1-2.6-2.6V6.9H7.1c-1.4,0-2.6,1.1-2.6,2.6v33.3c0,1.4,1.1,2.6,2.6,2.6h35.9c1.4,0,2.6-1.1,2.6-2.6V9.5
			C45.5,8.1,44.4,6.9,42.9,6.9z M39.4,29.5h-8.3v-8.3h8.3V29.5z M29.1,29.5h-8.3v-8.3h8.3V29.5z M18.9,29.5h-8.3v-8.3h8.3V29.5z
			 M39.4,39.6h-8.3v-8.3h8.3V39.6z M29.1,39.6h-8.3v-8.3h8.3V39.6z M18.9,39.6h-8.3v-8.3h8.3V39.6z"/>
	</g>
</g>
<g id="sexo">
	<g>
		 
			<path d="M17.9,11c2.5,0,3.5,2,3.8,3.1l3,9.9c0.6,2.1-2.1,3-2.7,0.9l-2.7-9.1h-0.8L23.1,32h-4.3v12.6c0,2.1-3.2,2.1-3.2,0V32h-1.3
				v12.7c0,2.1-3.3,2.1-3.3,0V32H6.7l4.7-16.1h-0.7L7.9,25c-0.7,2-3.4,1.2-2.7-0.9l3-9.9C8.5,13,9.5,11,12,11C12,11,17.9,11,17.9,11
				z"/>
			<circle cx="14.9" cy="6.8" r="3.5"/>
		 
			<circle cx="36.6" cy="6.8" r="3.5"/>
			<path d="M32.4,44.6c0,1.1,0.9,2,2,2c1.1,0,2-0.9,2-2V28h0.9v16.6c0,1.1,0.9,2,2,2s2-0.9,2-2V15.9h0.9v10.5c0,2.1,2.8,2.1,2.7,0
				V15.7c0-2.3-1.4-4.7-4.1-4.7h-7.9c-2.5,0-4.1,2.1-4.1,4.6v10.9c0,2.1,2.8,2.1,2.8,0V15.9h0.9V44.6z"/>
		 
	</g>
</g>
<g id="idade_1_">
	<g id="picto_M_1_">
		<circle cx="36.7" cy="6.8" r="3.5"/>
		<path d="M32.5,44.6c0,1.1,0.9,2,2,2c1.1,0,2-0.9,2-2V28h0.9v16.6c0,1.1,0.9,2,2,2s2-0.9,2-2V15.9h0.9v10.5c0,2.1,2.8,2.1,2.7,0
			V15.7c0-2.3-1.4-4.7-4.1-4.7h-7.9c-2.5,0-4.1,2.1-4.1,4.6v10.9c0,2.1,2.8,2.1,2.8,0V15.9h0.9V44.6z"/>
	</g>
	<path d="M45,29c-0.9,0-1.4,0.7-1.4,1.5c0,0.7,1,0.7,1,0c0-0.2,0.2-0.4,0.4-0.4c0.2,0,0.4,0.2,0.4,0.4V46c0,0.7,1,0.7,1,0V30.5
		C46.4,29.7,45.8,29,45,29z"/>
	<g>
		<path d="M14.9,20.9c1.5,0,2.8-1.3,2.8-2.8c0-1.5-1.3-2.8-2.8-2.8c-1.5,0-2.8,1.2-2.8,2.8C12.1,19.7,13.4,20.9,14.9,20.9L14.9,20.9
			z"/>
		<path d="M14.9,18.3"/>
		<path d="M11.9,27.7v-2.5l-2.5,2.4c-1.1,1.1-2.5-0.3-1.5-1.4l4-4c0.3-0.3,0.7-0.5,1.2-0.5h3.6c0.6,0,0.9,0.2,1.3,0.5l4,4
			c1,1-0.5,2.4-1.5,1.4L18,25.2v2.5H11.9z"/>
		<path d="M18,28.6L15.7,31l1.7,1.7l-1.8,1.8c-1,1,0.4,2.5,1.5,1.5l2.8-2.9c0.6-0.6,0.8-1.7,0.1-2.4C20,30.6,18,28.6,18,28.6
			L18,28.6z"/>
		<path d="M11.8,28.6l2.4,2.4l-1.7,1.7l1.8,1.8c1,1-0.4,2.5-1.5,1.5L9.9,33c-0.6-0.6-0.8-1.7-0.1-2.4C9.8,30.6,11.8,28.6,11.8,28.6
			L11.8,28.6z"/>
	</g>
</g>
</svg>
